<svg width="400" height="300" viewBox="0 0 400 300" xmlns="http://www.w3.org/2000/svg">
  <rect width="400" height="300" fill="#F2F0ED"/>
  <rect x="2" y="2" width="396" height="296" fill="none" stroke="#1A1A1A" stroke-width="4" stroke-dasharray="12 6"/>
  <!-- Sun in corner -->
  <circle cx="60" cy="60" r="30" fill="#F5C800" stroke="#1A1A1A" stroke-width="3"/>
  <line x1="60" y1="20" x2="60" y2="10" stroke="#1A1A1A" stroke-width="3" stroke-linecap="round"/>
  <line x1="60" y1="100" x2="60" y2="110" stroke="#1A1A1A" stroke-width="3" stroke-linecap="round"/>
  <line x1="20" y1="60" x2="10" y2="60" stroke="#1A1A1A" stroke-width="3" stroke-linecap="round"/>
  <line x1="100" y1="60" x2="110" y2="60" stroke="#1A1A1A" stroke-width="3" stroke-linecap="round"/>
  <line x1="35" y1="35" x2="28" y2="28" stroke="#1A1A1A" stroke-width="3" stroke-linecap="round"/>
  <line x1="85" y1="85" x2="92" y2="92" stroke="#1A1A1A" stroke-width="3" stroke-linecap="round"/>
  <line x1="85" y1="35" x2="92" y2="28" stroke="#1A1A1A" stroke-width="3" stroke-linecap="round"/>
  <line x1="35" y1="85" x2="28" y2="92" stroke="#1A1A1A" stroke-width="3" stroke-linecap="round"/>
  <!-- Ground line -->
  <path d="M 20 240 Q 100 235 200 242 Q 300 249 380 238" fill="none" stroke="#1A1A1A" stroke-width="3" stroke-linecap="round"/>
  <!-- Blockhead character placeholder -->
  <rect x="160" y="130" width="80" height="80" rx="4" fill="#F5C800" stroke="#1A1A1A" stroke-width="3"/>
  <!-- Eyes -->
  <circle cx="183" cy="158" r="7" fill="#1A1A1A"/>
  <circle cx="217" cy="158" r="7" fill="#1A1A1A"/>
  <circle cx="185" cy="156" r="2" fill="white"/>
  <circle cx="219" cy="156" r="2" fill="white"/>
  <!-- Smile -->
  <path d="M 183 175 Q 200 188 217 175" fill="none" stroke="#1A1A1A" stroke-width="3" stroke-linecap="round"/>
  <!-- Legs -->
  <rect x="172" y="208" width="16" height="28" rx="4" fill="#1A1A1A"/>
  <rect x="212" y="208" width="16" height="28" rx="4" fill="#1A1A1A"/>
  <!-- Arms -->
  <rect x="120" y="145" width="42" height="14" rx="6" fill="#F5C800" stroke="#1A1A1A" stroke-width="2"/>
  <rect x="238" y="145" width="42" height="14" rx="6" fill="#F5C800" stroke="#1A1A1A" stroke-width="2"/>
  <!-- Panel label -->
  <text x="200" y="290" font-family="sans-serif" font-size="11" font-weight="bold" fill="#1A1A1A" text-anchor="middle" opacity="0.4">COMIC PANEL</text>
</svg>
